{"title":"The Specialist-720p MP4 AAC x264 BRRip 1994-CC","uid":7639598,"size":2649818266,"categoryP":"video","categoryS":"hd___movies","magnet":"?xt=urn:btih:13875c0c756f97a404c35c910867998ce47d7c62&amp;dn=The+Specialist-720p+MP4+AAC+x264+BRRip+1994-CC&amp;tr=udp%3A%2F%2Ftracker.openbittorrent.com%3A80&amp;tr=udp%3A%2F%2Fopen.demonii.com%3A1337&amp;tr=udp%3A%2F%2Ftracker.coppersurfer.tk%3A6969&amp;tr=udp%3A%2F%2Fexodus.desync.com%3A6969","seeders":1,"leechers":1,"uploader":"Caveman44","files":-1,"time":1347742611,"description":" &lt;a href=&quot;http://www.imdb.com/title/tt0111255/&quot; rel=&quot;nofollow&quot; target=&quot;_NEW&quot;&gt;http://www.imdb.com/title/tt0111255/&lt;/a&gt;\n\nSource: The.Specialist.1994.720p.BluRay.x264-SHORTBREHD Thanks!\n\nSubs: Arabic, Bulgarian, Danish, Dutch, English, Finnish, Greek, Hebrew, Romanian, Slovenian, Spanish and Vietnamese.\n\nSample and Screens included.\n\nGeneral\nComplete name                            : The Specialist-720p MP4 AAC x264 BRRip 1994-CC.mp4\nFormat                                   : MPEG-4\nFormat profile                           : Base Media\nCodec ID                                 : isom\nFile size                                : 2.44 GiB\nDuration                                 : 1h 49mn\nOverall bit rate mode                    : Variable\nOverall bit rate                         : 3 178 Kbps\nEncoded date                             : UTC 2012-09-11 17:17:48\n\nVideo\nID                                       : 1\nFormat                                   : AVC\nFormat/Info                              : Advanced Video Codec\nFormat profile                           : &lt;a class=&quot;__cf_email__&quot; href=&quot;/cdn-cgi/l/email-protection&quot; data-cfemail=&quot;2d65444a456d611e031c&quot;&gt;[email&amp;#160;protected]&lt;/a&gt;&lt;script cf-hash='f9e31' type=&quot;text/javascript&quot;&gt;\n/* &lt;![CDATA[ */!function(){try{var t=&quot;currentScript&quot;in document?document.currentScript:function(){for(var t=document.getElementsByTagName(&quot;script&quot;),e=t.length;e--;)if(t[e].getAttribute(&quot;cf-hash&quot;))return t[e]}();if(t&amp;&amp;t.previousSibling){var e,r,n,i,c=t.previousSibling,a=c.getAttribute(&quot;data-cfemail&quot;);if(a){for(e=&quot;&quot;,r=parseInt(a.substr(0,2),16),n=2;a.length-n;n+=2)i=parseInt(a.substr(n,2),16)^r,e+=String.fromCharCode(i);e=document.createTextNode(e),c.parentNode.replaceChild(e,c)}}}catch(u){}}();/* ]]&gt; */&lt;/script&gt;\nFormat settings, CABAC                   : Yes\nFormat settings, ReFrames                : 5 frames\nCodec ID                                 : avc1\nCodec ID/Info                            : Advanced Video Coding\nDuration                                 : 1h 49mn\nBit rate                                 : 2 870 Kbps\nMaximum bit rate                         : 25.3 Mbps\nWidth                                    : 1 280 pixels\nHeight                                   : 720 pixels\nDisplay aspect ratio                     : 16:9\nFrame rate mode                          : Variable\nFrame rate                               : 23.976 fps\nMinimum frame rate                       : 23.256 fps\nMaximum frame rate                       : 25.000 fps\nColor space                              : YUV\nChroma subsampling                       : 4:2:0\nBit depth                                : 8 bits\nScan type                                : Progressive\nBits/(Pixel*Frame)                       : 0.130\nStream size                              : 2.19 GiB (90%)\nWriting library                          : x264 core 120\n\nAudio\nID                                       : 2\nFormat                                   : AAC\nFormat/Info                              : Advanced Audio Codec\nFormat profile                           : LC\nCodec ID                                 : 40\nDuration                                 : 1h 49mn\nBit rate mode                            : Variable\nBit rate                                 : 320 Kbps\nMaximum bit rate                         : 451 Kbps\nChannel(s)                               : 6 channels\nChannel positions                        : Front: L C R, Side: L R, LFE\nSampling rate                            : 48.0 KHz\nCompression mode                         : Lossy\nDelay relative to video                  : 83ms\nStream size                              : 252 MiB (10%)\nLanguage                                 : English\n\nEnjoy..\n\nRequested by sv8pro.\n\nComing up soon: Blood Simple, Cradle 2 The Grave, Batman Begins and more.","torrent":{"xt":"urn:btih:13875c0c756f97a404c35c910867998ce47d7c62","amp;dn":"The+Specialist-720p+MP4+AAC+x264+BRRip+1994-CC","amp;tr":["udp%3A%2F%2Ftracker.openbittorrent.com%3A80","udp%3A%2F%2Fopen.demonii.com%3A1337","udp%3A%2F%2Ftracker.coppersurfer.tk%3A6969","udp%3A%2F%2Fexodus.desync.com%3A6969"],"infoHash":"13875c0c756f97a404c35c910867998ce47d7c62","infoHashBuffer":{"type":"Buffer","data":[19,135,92,12,117,111,151,164,4,195,92,145,8,103,153,140,228,125,124,98]},"announce":[],"urlList":[]}}